<svg xmlns="http://www.w3.org/2000/svg" viewBox="0 0 1080 1080"><defs><style>.cls-1{fill:#fff;}.cls-2{fill:#37bbed;}</style></defs><g id="Capa_1" data-name="Capa 1"><path class="cls-1" d="M539.92,1056.81A517.41,517.41,0,0,1,338.57,62.91a517.41,517.41,0,0,1,402.71,953.24A514.06,514.06,0,0,1,539.92,1056.81Z"/><path class="cls-1" d="M539.92,38.58c276.67,0,500.95,224.28,500.95,501s-224.28,500.94-500.95,500.94S39,816.19,39,539.53,263.26,38.58,539.92,38.58m0-32.67A533.74,533.74,0,0,0,332.21,1031.19,533.74,533.74,0,0,0,747.64,47.86,530.38,530.38,0,0,0,539.92,5.91Z"/><path class="cls-2" d="M539.92,191.05a346.94,346.94,0,1,1-135.59,27.32,346.12,346.12,0,0,1,135.59-27.32m0-152.47C263.26,38.58,39,262.86,39,539.53s224.28,500.94,500.94,500.94,500.95-224.28,500.95-500.94S816.59,38.58,539.92,38.58Z"/></g><g id="Capa_2" data-name="Capa 2"><path class="cls-2" d="M739.22,662.36c-8,35.82-50.34,39.58-80.58,43.45-50.95,6.59-102.6,3.08-153.12-5.34-22-6-44.58-4.55-66.54,1-19.11,5.06-38.19,12.53-58.26,8.17-36.79-4.24-49.45-48.11-38.11-79.06,6.76-20.69,26-33.93,46.83-37.57-17.39-39.31-3.17-76.59,39.85-87.45-22.79-42.12,9.75-75.15,48.79-87.88-12.82-13.7-1.89-32.86,7.41-45.31,6.38-8.24,18.3-18.82,8.38-29-3.94-3.89-13.76-13.6-5.23-17.65,43.81-9,138,67.83,115.44,114.79,28.34,2.53,51.77,15.69,48.24,48.24.66,3.38-4.49,13.77-1,14.37,28,7,51.72,32.86,46.72,63.06-.87,8.38-3.49,16.33-6.53,24.06-.55,1.31-.33,2,1.08,2.51C722.17,601.26,749.52,629.86,739.22,662.36Z"/></g></svg>