<svg id="Capa_2" data-name="Capa 2" xmlns="http://www.w3.org/2000/svg" viewBox="0 0 1922 483"><defs><style>.cls-1{fill:#fff;}.cls-2{fill:#1d1d1b;}.cls-3{fill:#37bbed;}</style></defs><path class="cls-1" d="M510.46,323a156.44,156.44,0,0,1-26.67-6V110.11h42v82.51h2a42,42,0,0,1,15.77-12A52.09,52.09,0,0,1,565,176.46a53.54,53.54,0,0,1,28.24,7.62q12.62,7.62,20.11,23.59t7.49,40q0,38.24-20.3,57.81t-60.9,19.58A211.77,211.77,0,0,1,510.46,323Zm59.25-39.75q8.81-10,8.81-32.32T571,219.75q-7.55-9-21.87-9a38.13,38.13,0,0,0-12.81,2.17,27.63,27.63,0,0,0-10.45,6.51v71.73a65.26,65.26,0,0,0,16.95,2.11Q560.92,293.27,569.71,283.28Z"/><path class="cls-1" d="M734.08,182.24a40.33,40.33,0,0,1,21.42,19q7,13.2,7,35.8v85.4H727.77l-2.89-14.19h-2a38,38,0,0,1-16.16,12.68,56.11,56.11,0,0,1-21.94,4.14q-14.46,0-25-5.19a37.53,37.53,0,0,1-16.09-14.58,42,42,0,0,1-5.58-21.88q0-20.62,14.38-31.93T698,238.21l23.38-2V234.4q0-10-3.21-15.63a18,18,0,0,0-10.25-8.08q-7-2.43-19.25-2.43a141.67,141.67,0,0,0-19.25,1.44A124.72,124.72,0,0,0,649.6,214V182.51A155.1,155.1,0,0,1,672.33,178a190.14,190.14,0,0,1,23.78-1.58Q719.63,176.46,734.08,182.24ZM710.69,293.73a29.22,29.22,0,0,0,10.64-6.9V259.89l-19.18,1.45q-11.82.92-17.21,5.45t-5.39,12.68q0,8,4.87,12.22t14.18,4.2A35,35,0,0,0,710.69,293.73Z"/><path class="cls-1" d="M792.54,178.7h34.3l3.28,18.52h2a38,38,0,0,1,15.77-15.44,48.22,48.22,0,0,1,22.34-5.05,59.18,59.18,0,0,1,11.56,1.05v38a72.09,72.09,0,0,0-14.19-1.19,50.21,50.21,0,0,0-18.79,3.68q-9.19,3.69-14.19,10.12v94.07H792.54Z"/><path class="cls-1" d="M927.74,323a156.44,156.44,0,0,1-26.67-6V110.11h42v82.51h2a42,42,0,0,1,15.76-12,52.12,52.12,0,0,1,21.42-4.21,53.58,53.58,0,0,1,28.25,7.62q12.62,7.62,20.1,23.59t7.49,40q0,38.24-20.3,57.81t-60.9,19.58A211.88,211.88,0,0,1,927.74,323ZM987,283.28q8.81-10,8.8-32.32t-7.55-31.21q-7.56-9-21.88-9a38.13,38.13,0,0,0-12.81,2.17,27.59,27.59,0,0,0-10.44,6.51v71.73a65.13,65.13,0,0,0,16.94,2.11Q978.2,293.27,987,283.28Z"/><path class="cls-1" d="M1151.36,182.24a40.29,40.29,0,0,1,21.42,19q7,13.2,7,35.8v85.4h-34.68l-2.89-14.19h-2A38,38,0,0,1,1124,320.92a56.11,56.11,0,0,1-21.94,4.14q-14.44,0-25-5.19a37.5,37.5,0,0,1-16.1-14.58,42,42,0,0,1-5.58-21.88q0-20.62,14.39-31.93t45.39-13.27l23.39-2V234.4q0-10-3.22-15.63a18,18,0,0,0-10.25-8.08q-7-2.43-19.25-2.43a141.79,141.79,0,0,0-19.25,1.44,124.72,124.72,0,0,0-19.77,4.34V182.51a155.36,155.36,0,0,1,22.73-4.47,190.27,190.27,0,0,1,23.78-1.58Q1136.91,176.46,1151.36,182.24ZM1128,293.73a29.3,29.3,0,0,0,10.64-6.9V259.89l-19.18,1.45q-11.84.92-17.22,5.45t-5.38,12.68q0,8,4.86,12.22t14.19,4.2A35,35,0,0,0,1128,293.73Z"/><path class="cls-2" d="M1222.31,306.4q-20.1-18.78-20.1-55.7,0-37.32,21.28-56t61.36-18.72a154.33,154.33,0,0,1,33.24,3.28v38.63a154.66,154.66,0,0,0-26.14-2.37q-20.51,0-29.76,8.28t-9.27,26.54q0,18.79,8.81,27.13t26.93,8.35a84.49,84.49,0,0,0,13.21-1q6.63-1.05,16.22-3.29v38.5a109.84,109.84,0,0,1-17.54,3.87,138.74,138.74,0,0,1-19.64,1.38Q1242.41,325.19,1222.31,306.4Z"/><path class="cls-2" d="M1365.19,316.78a57.63,57.63,0,0,1-25.29-25.09q-8.81-16.68-8.8-40.86,0-36.92,19.05-55.91t54.26-19q23.27,0,39.68,8.47a56.92,56.92,0,0,1,25,25.23q8.61,16.76,8.61,40.92t-8.81,41a58,58,0,0,1-25.29,25.16q-16.49,8.47-39.22,8.47T1365.19,316.78Zm52.43-31.92q5.19-3.42,7.88-11.63t2.69-22.4q0-14.33-2.69-22.67t-7.88-11.76q-5.19-3.41-13.21-3.41t-13.2,3.41q-5.19,3.42-7.89,11.7t-2.69,22.46q0,14.32,2.69,22.6t7.89,11.7q5.19,3.42,13.2,3.41T1417.62,284.86Z"/><path class="cls-2" d="M1593.87,182.05a42,42,0,0,1,22.47,20q7.22,13.93,7.22,37.84v82.51H1583.1l-3.42-13.66h-2.23a36.07,36.07,0,0,1-15.51,12.42,54.41,54.41,0,0,1-21.41,4q-14.85,0-25.69-5.38a38.41,38.41,0,0,1-16.49-15,42.9,42.9,0,0,1-5.65-22.21q0-21.28,15-32.91t47.49-13.6l20.24-1.31q-.27-8.15-3.36-12.88c-2-3.15-5.3-5.43-9.72-6.83s-10.49-2.1-18.19-2.1a144.54,144.54,0,0,0-19.38,1.44,130.61,130.61,0,0,0-19.78,4.21V182a172.81,172.81,0,0,1,23.72-4.47,204,204,0,0,1,24.63-1.57Q1578.63,175.94,1593.87,182.05ZM1566.8,290a25.86,25.86,0,0,0,8.68-4.6V261.6l-15,1q-10,.66-14.65,4.54t-4.67,10.7q0,6.57,4.14,10.06t11.89,3.48A32.42,32.42,0,0,0,1566.8,290Z"/><path class="cls-2" d="M1631.18,363.69q11-14.58,15.31-29t4.27-35.6V178.3h49.53V297.08q0,25.49-8.54,46.18T1663,384.71Zm21.15-209.23q-7.35-6.37-7.35-18.6t7.35-18.46q7.37-6.36,22.6-6.37t22.47,6.37q7.36,6.38,7.36,18.46t-7.36,18.6q-7.35,6.36-22.47,6.37T1652.33,154.46Z"/><circle class="cls-1" cx="324.43" cy="241.5" r="120.59"/><path class="cls-1" d="M324.43,124.72A116.78,116.78,0,1,1,207.65,241.5,116.77,116.77,0,0,1,324.43,124.72m0-7.61a124.4,124.4,0,1,0,88,36.43,123.56,123.56,0,0,0-88-36.43Z"/><path class="cls-3" d="M324.43,160.26a81.24,81.24,0,1,1-81.24,81.24,81.33,81.33,0,0,1,81.24-81.24m0-35.54A116.78,116.78,0,1,0,441.21,241.5,116.79,116.79,0,0,0,324.43,124.72Z"/><path class="cls-3" d="M370.89,270.13a10.53,10.53,0,0,1-.84,2.34,10.4,10.4,0,0,1-5.35,5,26.66,26.66,0,0,1-5.89,1.78,65.61,65.61,0,0,1-6.7,1c-1.81.21-3.66.33-5.49.48a65.91,65.91,0,0,1-8.65.39c-2.31-.11-4.6-.18-6.91-.39-1.45-.12-2.92-.22-4.39-.35s-2.79-.33-4.19-.48c-2.06-.21-4.06-.59-6.07-.89-1.06-.18-2.11-.41-3.12-.64a20.67,20.67,0,0,0-5.61-.22,42,42,0,0,0-6.78,1.09c-1.93.43-3.78,1-5.66,1.62a11.78,11.78,0,0,1-3.1.48,19.92,19.92,0,0,1-4.82-.2,12,12,0,0,1-5.89-2.66,11.75,11.75,0,0,1-2.69-3.84,18.11,18.11,0,0,1-1.17-5.35,16.14,16.14,0,0,1,.86-6.58,12.41,12.41,0,0,1,4.34-6,14.5,14.5,0,0,1,5.11-2.43,15.12,15.12,0,0,1,1.47-.36c-.36-1-.74-1.9-1-2.84a16,16,0,0,1-.18-8.61,9.88,9.88,0,0,1,1.53-3.17,13.42,13.42,0,0,1,2.79-2.89,15.4,15.4,0,0,1,4.42-2.26c.55-.21,1.11-.41,1.72-.61-.23-.51-.43-1-.63-1.43a12.15,12.15,0,0,1-1.09-4.84A11.5,11.5,0,0,1,299,220.5c2.05-2.94,5-4.74,8.15-6.22.94-.43,1.9-.76,2.86-1.19-.27-.38-.58-.74-.81-1.12a5.45,5.45,0,0,1-.15-4.54,16.51,16.51,0,0,1,2.69-4.9c.76-1,1.52-1.91,2.26-2.87a3,3,0,0,0-.3-3.88,9.48,9.48,0,0,1-1.65-2,4.52,4.52,0,0,1-.33-.89,1.07,1.07,0,0,1,.76-1.27,7.47,7.47,0,0,1,3.58,0,24.55,24.55,0,0,1,6.72,2.21,27,27,0,0,1,6.66,4.42c1.09,1,2.2,2,3.24,2.94a28.2,28.2,0,0,1,6.17,8,13.15,13.15,0,0,1,1.37,5.84,9.38,9.38,0,0,1-.83,3.35c.1.2.28.18.43.18a14.3,14.3,0,0,1,4.54.84,8.93,8.93,0,0,1,5.51,4.72,10.68,10.68,0,0,1,.76,5.51,15.55,15.55,0,0,1-.56,2.89c-.05.25.06.38.33.46a17.83,17.83,0,0,1,6.35,3.25,12.39,12.39,0,0,1,3.78,5,13.37,13.37,0,0,1,.77,6.45,21.8,21.8,0,0,1-1.53,5.61c-.12.3-.07.45.26.58a20.09,20.09,0,0,1,3.09,1.27,17.84,17.84,0,0,1,5.79,4.57A11.38,11.38,0,0,1,371,264,12.68,12.68,0,0,1,370.89,270.13Z"/></svg>